# xmcd
#
# Track frame offsets: 
#        150
#        108362
#        213687
#        254065
#
# Disc length: 3849 seconds
#
# Revision: 0
# Processed by: cddbd v1.5.2PL0 Copyright (c) Steve Scherf et al.
# Submitted via: ExactAudioCopy v1.0b3
#
DISCID=3b0f0704
DTITLE=Olof Hasvén - Healing with a Heart
DYEAR=1998
DGENRE=Electronic
TTITLE0=Healing with a Heart
TTITLE1=Meditation on Light
TTITLE2=Beyond
TTITLE3=Alfa Centauri
EXTD=
EXTT0=
EXTT1=
EXTT2=
EXTT3=
PLAYORDER=
